<!DOCTYPE svg PUBLIC "-//W3C//DTD SVG 1.1//EN" "http://www.w3.org/Graphics/SVG/1.1/DTD/svg11.dtd">
<!-- Uploaded to: SVG Repo, www.svgrepo.com, Transformed by: SVG Repo Mixer Tools -->
<svg fill="#000000" height="256px" width="256px" version="1.1" id="Capa_1" xmlns="http://www.w3.org/2000/svg" xmlns:xlink="http://www.w3.org/1999/xlink" viewBox="0 0 445.00 445.00" xml:space="preserve" stroke="#000000" stroke-width="0.004450000000000001">
<g id="SVGRepo_bgCarrier" stroke-width="0"/>
<g id="SVGRepo_tracerCarrier" stroke-linecap="round" stroke-linejoin="round" stroke="#CCCCCC" stroke-width="5.34"/>
<g id="SVGRepo_iconCarrier"> <g> <path d="M262.5,185h-3.496v-22c0-2.209-1.791-4-4-4h-2.686l-9.384-26.262V101.18c0-0.785-0.09-1.567-0.267-2.332 c-2.123-9.13-16.167-69.443-16.167-69.443V4.172c0-2.089-1.527-3.955-3.607-4.153C220.508-0.209,218.5,1.661,218.5,4v25.363 c0,0-14.046,60.354-16.168,69.485c-0.178,0.765-0.267,1.546-0.267,2.331v31.558L192.682,159h-2.678c-2.209,0-4,1.791-4,4v22H182.5 c-2.209,0-4,1.791-4,4v81c0,2.209,1.791,4,4,4h3.504v167c0,2.209,1.791,4,4,4h65c2.209,0,4-1.791,4-4V274h3.496 c2.209,0,4-1.791,4-4v-81C266.5,186.791,264.709,185,262.5,185z M222.5,47.367L233.89,96h-22.78L222.5,47.367z M210.065,104h8.435 v13c0,2.209,1.791,4,4,4s4-1.791,4-4v-13h8.434v26h-24.87V104z M208.68,138h27.64l7.503,21h-42.646L208.68,138z M194.004,167h57v18 h-6.25v-6.801c0-2.209-1.791-4-4-4s-4,1.791-4,4V185h-10.25v-6.801c0-2.209-1.791-4-4-4s-4,1.791-4,4V185h-10.25v-6.801 c0-2.209-1.791-4-4-4s-4,1.791-4,4V185h-6.25V167z M202.257,437h-8.253v-44h8.253V437z M202.257,385h-8.253v-50h8.253V385z M218.504,437h-8.247v-44h8.247V437z M218.504,385h-8.247v-50h8.247V385z M234.75,437h-8.247v-44h8.247V437z M234.75,385h-8.247 v-50h8.247V385z M251.004,437h-8.253v-44h8.253V437z M251.004,385h-8.253v-50h8.253V385z M251.004,327h-8.253v-41.5 c0-2.209-1.791-4-4-4c-2.209,0-4,1.791-4,4V327h-8.247v-41.5c0-2.209-1.791-4-4-4s-4,1.791-4,4V327h-8.247v-41.5 c0-2.209-1.791-4-4-4s-4,1.791-4,4V327h-8.253v-53h57V327z M258.5,266h-72v-73h72V266z"/> <path d="M222.5,258.5c15.991,0,29-13.01,29-29c0-15.99-13.009-29-29-29c-15.991,0-29,13.01-29,29 C193.5,245.49,206.509,258.5,222.5,258.5z M222.5,208.5c11.58,0,21,9.421,21,21s-9.42,21-21,21c-11.58,0-21-9.421-21-21 S210.92,208.5,222.5,208.5z"/> <path d="M222.5,233.5h10c2.209,0,4-1.791,4-4s-1.791-4-4-4h-6v-6.125c0-2.209-1.791-4-4-4s-4,1.791-4,4V229.5 C218.5,231.709,220.291,233.5,222.5,233.5z"/> </g> </g>
</svg>